HIERARCHY
ROOT hip
{
	OFFSET 0.000000 0.000000 0.000000 
	CHANNELS 6 Xposition Yposition Zposition Xrotation Zrotation Yrotation
	JOINT abdomen
	{
		OFFSET 0.000000 3.402643 0.000000 
		CHANNELS 3 Xrotation Zrotation Yrotation
		JOINT chest
		{
			OFFSET 0.000000 8.438565 -0.680529 
			CHANNELS 3 Xrotation Zrotation Yrotation
			JOINT neck
			{
				OFFSET 0.000000 10.207942 -0.272212 
				CHANNELS 3 Xrotation Zrotation Yrotation
				JOINT head
				{
					OFFSET 0.000000 3.130431 0.000000 
					CHANNELS 3 Xrotation Zrotation Yrotation
					End Site
					{
						OFFSET 0.000000 3.130435 0.000000 
					}
				}
			}
			JOINT lCollar
			{
				OFFSET 3.470700 6.669187 -0.816635 
				CHANNELS 3 Yrotation Zrotation Xrotation
				JOINT lShldr
				{
					OFFSET 3.198488 0.000000 0.000000 
					CHANNELS 3 Zrotation Yrotation Xrotation
					JOINT lForeArm
					{
						OFFSET 10.139888 0.000000 0.000000 
						CHANNELS 3 Yrotation Zrotation Xrotation
						JOINT lHand
						{
							OFFSET 8.370511 0.000000 0.000000 
							CHANNELS 3 Zrotation Yrotation Xrotation
							End Site
							{
								OFFSET 4.083176 0.000000 0.000000 
							}
						}
					}
				}
			}
			JOINT rCollar
			{
				OFFSET -3.470700 6.669187 -0.816635 
				CHANNELS 3 Yrotation Zrotation Xrotation
				JOINT rShldr
				{
					OFFSET -3.198488 0.000000 0.000000 
					CHANNELS 3 Zrotation Yrotation Xrotation
					JOINT rForeArm
					{
						OFFSET -10.139888 0.000000 0.000000 
						CHANNELS 3 Yrotation Zrotation Xrotation
						JOINT rHand
						{
							OFFSET -8.370511 0.000000 0.000000 
							CHANNELS 3 Zrotation Yrotation Xrotation
							End Site
							{
								OFFSET -4.083176 0.000000 0.000000 
							}
						}
					}
				}
			}
		}
	}
	JOINT lThigh
	{
		OFFSET 5.308129 -1.633274 1.361059 
		CHANNELS 3 Xrotation Zrotation Yrotation
		JOINT lShin
		{
			OFFSET -2.041588 -20.007561 0.000000 
			CHANNELS 3 Xrotation Zrotation Yrotation
			JOINT lFoot
			{
				OFFSET 0.000000 -19.190928 -1.224953 
				CHANNELS 3 Xrotation Yrotation Zrotation
				End Site
				{
					OFFSET 0.000000 -2.449906 4.627600 
				}
			}
		}
	}
	JOINT rThigh
	{
		OFFSET -5.308129 -1.633274 1.361059 
		CHANNELS 3 Xrotation Zrotation Yrotation
		JOINT rShin
		{
			OFFSET 2.041588 -20.007561 0.000000 
			CHANNELS 3 Xrotation Zrotation Yrotation
			JOINT rFoot
			{
				OFFSET 0.000000 -19.190928 -1.224953 
				CHANNELS 3 Xrotation Yrotation Zrotation
				End Site
				{
					OFFSET 0.000000 -2.449906 4.627600 
				}
			}
		}
	}
}
MOTION
Frames: 15
Frame Time: 0.011111
11.190905 50.148335 7.629707 3.615972 -9.196586 -12.096580 4.205498 11.320580 11.679569 -4.039911 0.534505 3.229515 -16.092722 -5.296055 -1.122035 30.377426 9.496806 -1.250128 12.413046 -14.960623 4.251975 -68.862129 -21.715389 4.401864 -44.452789 6.417970 5.065907 6.992188 16.005859 -68.835197 -6.427974 8.898234 2.089853 70.313538 57.282074 24.720346 65.728928 -10.210416 13.951857 -7.001954 -15.996095 69.570313 -40.460831 16.198730 -5.975711 31.955000 -5.219754 -2.390344 -23.504759 -5.463001 -2.063547 26.648371 7.538834 9.882974 3.522500 5.056993 -0.023596 -9.495667 8.443332 2.249635 
11.230312 50.140511 8.301537 3.813550 -8.831502 -12.263062 3.640930 10.904930 11.678159 -4.020022 0.728646 3.259481 -15.928168 -5.292566 -1.179367 30.697803 9.134153 -1.413366 12.413046 -14.960623 4.251975 -68.889267 -21.125015 2.059608 -43.879295 6.230982 4.854725 6.992188 16.005859 -70.417229 -6.427974 8.898234 2.089853 70.124382 57.050198 24.680664 65.942383 -10.210604 14.040359 -7.001954 -15.996095 69.726563 -39.684937 15.926934 -5.575103 31.854168 -5.230337 -2.369081 -23.050161 -6.359301 -2.464720 26.938234 6.991704 9.812893 3.523462 5.056482 -0.013889 -8.548813 8.170133 2.096114 
11.292239 50.143009 8.986815 3.609596 -8.068300 -12.425841 3.483631 9.994981 12.064021 -3.990853 0.697288 3.396483 -15.650415 -5.527706 -1.322047 30.626572 9.399125 -1.641449 12.413046 -14.960623 4.251975 -68.676743 -20.664896 0.472027 -43.715614 6.176599 4.789125 6.992188 16.005859 -71.374260 -6.427974 8.898234 2.089853 69.998245 56.852879 24.053421 66.265411 -10.216464 14.196077 -7.001954 -15.996095 69.677734 -38.327843 14.979787 -5.409711 31.854168 -5.230341 -2.369083 -23.077835 -6.296546 -2.429827 27.399548 5.956873 9.513941 3.522613 5.056916 -0.023603 -7.418767 7.894508 1.910930 
11.366993 50.190556 9.685856 3.388918 -7.332906 -12.545245 3.348222 9.133231 12.358775 -3.776394 0.693607 3.506558 -15.837517 -5.758123 -1.308084 30.685373 9.981556 -1.544282 12.413046 -14.960623 4.251975 -68.580254 -20.641621 -1.335690 -43.398979 6.072692 4.677490 6.992188 16.005859 -72.692619 -6.427974 8.898234 2.089853 69.909355 56.919006 23.541216 66.393517 -10.215637 14.247058 -7.001954 -15.996095 69.570313 -37.014183 14.109063 -4.610634 32.022186 -5.234702 -2.397327 -22.380568 -6.003344 -2.298944 27.803015 4.960706 9.154662 3.523645 5.056355 -0.013901 -6.078904 7.493798 1.679656 
11.431110 50.305965 10.381767 3.431774 -7.054363 -12.778811 3.001723 8.805080 12.242530 -3.571239 0.886327 3.491605 -15.819640 -5.717047 -1.200800 30.692610 10.035388 -1.282302 12.413046 -14.960623 4.251975 -68.793671 -20.267775 -3.012836 -43.204803 6.005717 4.606314 6.992188 16.005859 -73.473869 -6.427974 8.898234 2.089853 69.894524 56.821514 23.818106 66.499954 -10.213959 14.296573 -7.001954 -15.996095 69.736328 -36.315857 13.915175 -3.550438 32.270458 -5.230788 -2.406100 -20.687140 -5.589367 -2.121067 26.257914 4.697214 8.962881 7.405813 5.152561 0.281081 -6.335874 7.695528 1.730453 
11.504611 50.413872 11.092381 3.506692 -7.123305 -12.979521 2.665196 8.986470 12.007172 -3.424666 1.014858 3.437030 -15.663760 -5.704220 -1.078327 30.642794 9.942524 -1.045157 12.413046 -14.960623 4.251975 -69.161629 -19.480257 -3.971468 -43.317242 6.044939 4.644644 6.992188 16.005859 -73.600822 -6.427974 8.898234 2.089853 69.926048 56.533012 24.056757 66.651123 -10.216516 14.369622 -7.001954 -15.996095 69.833984 -35.913177 13.933892 -3.175810 32.370964 -5.221422 -2.417116 -19.000368 -4.638288 -1.755468 24.924475 4.706746 8.871845 11.011997 5.212874 0.588162 -6.163338 7.893883 1.748749 
11.575298 50.464855 11.782976 3.488045 -6.865944 -12.775358 2.372564 8.760845 11.610739 -3.590289 1.055065 3.336718 -15.616312 -5.595778 -1.024077 31.013636 9.722869 -0.912304 12.413046 -14.960623 4.251975 -69.188942 -18.721251 -4.640334 -43.246006 6.023236 4.620595 6.992188 16.005859 -73.610588 -6.427974 8.898234 2.089853 69.980080 56.035694 24.178938 66.769829 -10.218060 14.428918 -7.001954 -15.996095 69.921875 -35.305309 13.474090 -2.789698 32.231602 -5.225497 -2.403012 -17.200724 -4.012397 -1.536132 23.695860 4.540752 8.319215 14.259696 5.257050 0.874702 -5.430483 7.901187 1.663517 
11.605013 50.519897 12.437291 2.985775 -5.661598 -12.264520 2.458526 7.042180 11.025570 -4.087121 1.308795 3.181229 -15.657146 -5.095999 -1.074682 31.782503 9.017712 -1.041359 12.413046 -14.960623 4.251975 -68.879837 -18.059752 -5.251628 -43.041451 5.949606 4.542167 6.992188 16.005859 -73.278557 -6.427974 8.898234 2.089853 70.265190 55.392185 24.260128 66.865288 -10.215183 14.468089 -7.001954 -15.996095 69.941406 -33.902519 12.059296 -1.705915 31.993767 -5.225053 -2.383687 -15.380653 -4.210968 -1.568953 22.619825 3.544688 7.297165 17.325066 5.288422 1.155176 -4.599324 7.404258 1.486725 
11.628781 50.628117 13.100050 2.320144 -3.943498 -11.810194 2.560819 4.614318 10.536032 -4.203249 1.783962 3.080527 -15.777814 -4.859840 -1.111733 32.212070 8.803467 -1.116254 12.413046 -14.960623 4.251975 -68.727867 -17.847635 -6.096017 -42.898411 5.898380 4.486998 6.992188 16.005859 -73.581284 -6.427974 8.898234 2.089853 70.493813 54.940441 24.089733 66.983864 -10.216001 14.517776 -7.001954 -15.996095 69.824219 -32.200832 10.203070 -0.227714 31.773272 -5.240606 -2.359084 -13.654862 -4.336971 -1.576030 21.335735 1.933623 5.983524 20.535465 5.289981 1.399170 -3.490425 6.987880 1.284855 
11.671944 50.781998 13.776883 1.956685 -2.911611 -11.317289 2.526840 3.222255 10.122325 -4.026804 2.175112 2.989241 -15.821322 -5.305555 -1.030382 31.967392 9.635910 -0.841691 12.413046 -14.960623 4.251975 -68.845566 -17.986237 -6.987820 -42.613209 5.802139 4.385088 6.992188 16.005859 -74.538322 -6.427974 8.898234 2.089853 70.351791 54.517967 23.833031 67.262238 -10.212535 14.641150 -7.001954 -15.996095 69.804688 -30.805628 8.982820 0.808838 31.555079 -5.240147 -2.330802 -11.207383 -3.860784 -1.398712 19.893044 0.976914 4.939435 23.838274 5.275874 1.695097 -1.939759 6.250159 1.031330 
11.683203 50.891472 14.404926 1.940240 -2.784217 -10.862385 2.460833 2.957110 9.792195 -4.104482 2.374571 2.898559 -15.559145 -5.651614 -1.018426 31.514622 10.153114 -0.749572 12.413046 -14.960623 4.251975 -68.864189 -17.923512 -7.535238 -42.389519 5.728235 4.306492 6.992188 16.005859 -75.163322 -6.427974 8.898234 2.089853 70.232613 53.955822 23.478216 67.434334 -10.211615 14.726338 -7.001954 -15.996095 69.697266 -30.014040 8.816537 1.544506 31.486557 -5.234902 -2.336318 -10.598714 -4.616219 -1.533896 18.477165 1.035369 4.489970 26.980091 5.254854 1.962632 0.149097 4.965680 0.706306 
11.706974 50.949959 15.012324 1.894447 -2.514786 -10.420890 2.410308 2.521176 9.362730 -4.397128 2.515807 2.768663 -14.835979 -5.817417 -1.035958 31.021551 10.416059 -0.664258 12.413046 -14.960623 4.251975 -68.758171 -17.792837 -8.644528 -42.155552 5.647224 4.221059 6.992188 16.005859 -76.442619 -6.427974 8.898234 2.089853 70.311363 53.181198 23.388927 67.445084 -10.211528 14.727177 -7.001954 -15.996095 69.580078 -29.455851 8.532716 2.516377 31.713717 -5.240514 -2.346956 -10.090203 -5.341279 -1.652141 17.013214 0.898568 3.969107 29.968954 5.229789 2.214049 2.727182 3.402655 0.413965 
11.764211 51.011890 15.631297 1.666350 -2.455609 -9.870669 2.616112 2.429996 8.916715 -4.651114 2.478118 2.630965 -14.341094 -6.067159 -1.017623 30.664005 10.919831 -0.493968 12.413046 -14.960623 4.251975 -68.583031 -17.941868 -9.895308 -41.829975 5.529352 4.108465 6.992188 16.005859 -78.307854 -6.427974 8.898234 2.089853 70.395638 52.061680 23.071283 68.012344 -10.198462 14.987293 -7.001954 -15.996095 69.296875 -28.761183 8.288066 2.976455 31.941889 -5.239790 -2.365516 -9.652402 -6.213462 -1.811197 15.661337 0.888685 3.344924 32.999569 5.189424 2.453815 5.264364 1.694040 0.237876 
11.818946 51.066624 16.252144 1.360282 -2.948194 -9.467527 3.101192 3.003678 8.800513 -4.749285 2.159842 2.581244 -14.559021 -6.027091 -1.050504 30.834103 11.019678 -0.541212 12.413046 -14.960623 4.251975 -68.261292 -18.284494 -10.195009 -41.718056 5.487549 4.061656 6.992188 16.005859 -79.167229 -6.427974 8.898234 2.089853 70.450127 51.210674 22.545301 68.463448 -10.187915 15.196727 -7.001954 -15.996095 69.082031 -27.838123 8.641165 3.468248 32.031891 -5.234860 -2.378304 -9.035106 -7.528436 -2.005819 14.534169 1.376664 2.888665 36.004749 5.133389 2.734617 7.684609 0.064660 0.165766 
11.883062 51.115417 16.881750 1.081560 -3.185221 -9.192733 3.456878 3.351959 8.627130 -4.544728 1.896293 2.532077 -15.127445 -5.761306 -0.990680 31.154505 10.718215 -0.514758 12.413046 -14.960623 4.251975 -68.158386 -18.708794 -10.204882 -41.779213 5.511699 4.084331 6.992188 16.005859 -79.460197 -6.427974 8.898234 2.089853 70.259407 51.196278 22.807699 67.906776 -10.204619 14.946682 -7.001954 -15.996095 69.638680 -27.122482 8.786454 3.794284 32.399948 -5.225926 -2.409854 -8.094990 -8.629822 -2.097403 13.395564 1.523257 2.410230 38.824825 5.083320 2.970373 9.913592 -1.537050 0.198472 
